<svg width="256" height="256" viewBox="0 0 24 24" fill="none" xmlns="http://www.w3.org/2000/svg">
<rect width="24" height="24" fill="white"/>
<path d="M12 2C6.47715 2 2 6.47715 2 12C2 17.5228 6.47715 22 12 22C17.5228 22 22 17.5228 22 12C22 6.47715 17.5228 2 12 2Z" fill="url(#paint0_linear_70_33)"/>
<path d="M12 4C7.58172 4 4 7.58172 4 12C4 16.4183 7.58172 20 12 20C16.4183 20 20 16.4183 20 12C20 7.58172 16.4183 4 12 4Z" fill="url(#paint1_linear_70_33)"/>
<path fill-rule="evenodd" clip-rule="evenodd" d="M12 6C9.17157 6 6.88388 8.16335 6.42533 11H17.5747C17.1161 8.16335 14.8284 6 12 6ZM12 18C9.17157 18 6.88388 15.8367 6.42533 13H17.5747C17.1161 15.8367 14.8284 18 12 18Z" fill="url(#paint2_linear_70_33)"/>
<path d="M12 6V18" stroke="url(#paint3_linear_70_33)" stroke-width="1.5" stroke-linecap="round"/>
<path d="M7 12H17" stroke="url(#paint4_linear_70_33)" stroke-width="1.5" stroke-linecap="round"/>
<path d="M9 9L15 15" stroke="url(#paint5_linear_70_33)" stroke-width="1.5" stroke-linecap="round"/>
<path d="M15 9L9 15" stroke="url(#paint6_linear_70_33)" stroke-width="1.5" stroke-linecap="round"/>
<path d="M14 12L12 14L10 12" stroke="url(#paint7_linear_70_33)" stroke-width="1.5" stroke-linecap="round" stroke-linejoin="round"/>
<defs>
<linearGradient id="paint0_linear_70_33" x1="12" y1="2" x2="12" y2="22" gradientUnits="userSpaceOnUse">
<stop stop-color="#3B82F6"/>
<stop offset="1" stop-color="#2563EB"/>
</linearGradient>
<linearGradient id="paint1_linear_70_33" x1="12" y1="4" x2="12" y2="20" gradientUnits="userSpaceOnUse">
<stop stop-color="#60A5FA"/>
<stop offset="1" stop-color="#3B82F6"/>
</linearGradient>
<linearGradient id="paint2_linear_70_33" x1="12" y1="6" x2="12" y2="18" gradientUnits="userSpaceOnUse">
<stop stop-color="#A5D6A7"/>
<stop offset="1" stop-color="#66BB6A"/>
</linearGradient>
<linearGradient id="paint3_linear_70_33" x1="12" y1="6" x2="12" y2="18" gradientUnits="userSpaceOnUse">
<stop stop-color="#FFFFFF"/>
<stop offset="1" stop-color="#E0E0E0"/>
</linearGradient>
<linearGradient id="paint4_linear_70_33" x1="12" y1="12" x2="12" y2="12" gradientUnits="userSpaceOnUse">
<stop stop-color="#FFFFFF"/>
<stop offset="1" stop-color="#E0E0E0"/>
</linearGradient>
<linearGradient id="paint5_linear_70_33" x1="12" y1="9" x2="12" y2="15" gradientUnits="userSpaceOnUse">
<stop stop-color="#FFFFFF"/>
<stop offset="1" stop-color="#E0E0E0"/>
</linearGradient>
<linearGradient id="paint6_linear_70_33" x1="12" y1="9" x2="12" y2="15" gradientUnits="userSpaceOnUse">
<stop stop-color="#FFFFFF"/>
<stop offset="1" stop-color="#E0E0E0"/>
</linearGradient>
<linearGradient id="paint7_linear_70_33" x1="12" y1="12" x2="12" y2="14" gradientUnits="userSpaceOnUse">
<stop stop-color="#FFFFFF"/>
<stop offset="1" stop-color="#E0E0E0"/>
</linearGradient>
</defs>
</svg>
